<svg xmlns="http://www.w3.org/2000/svg" width="38" height="38" fill="none" viewBox="0 0 38 38">
  <path fill="#fff" d="M0 0v38h38V0H0Zm20.68 29.637c0 3.698-2.172 5.386-5.336 5.386-2.858 0-4.512-1.476-5.36-3.266l2.909-1.756c.56.993 1.069 1.832 2.298 1.832 1.171 0 1.917-.458 1.917-2.247V17.448h3.572v12.189Zm8.448 5.386c-3.317 0-5.463-1.578-6.506-3.648l2.91-1.679c.763 1.247 1.764 2.171 3.52 2.171 1.475 0 2.425-.738 2.425-1.764 0-1.221-.967-1.654-2.604-2.375l-.89-.382c-2.579-1.094-4.284-2.476-4.284-5.386 0-2.68 2.044-4.716 5.225-4.716 2.273 0 3.902.789 5.072 2.859l-2.782 1.78c-.61-1.093-1.272-1.526-2.298-1.526-1.044 0-1.705.662-1.705 1.527 0 1.069.661 1.501 2.197 2.171l.89.382c3.037 1.298 4.742 2.63 4.742 5.615 0 3.206-2.528 4.97-5.912 4.97Z"/>
</svg>
